G04 #@! TF.GenerationSoftware,KiCad,Pcbnew,(5.1.10)-1*
G04 #@! TF.CreationDate,2021-12-22T00:26:24+01:00*
G04 #@! TF.ProjectId,helix,68656c69-782e-46b6-9963-61645f706362,rev?*
G04 #@! TF.SameCoordinates,Original*
G04 #@! TF.FileFunction,Profile,NP*
%FSLAX46Y46*%
G04 Gerber Fmt 4.6, Leading zero omitted, Abs format (unit mm)*
G04 Created by KiCad (PCBNEW (5.1.10)-1) date 2021-12-22 00:26:24*
%MOMM*%
%LPD*%
G01*
G04 APERTURE LIST*
G04 #@! TA.AperFunction,Profile*
%ADD10C,0.150000*%
G04 #@! TD*
G04 APERTURE END LIST*
D10*
X81599200Y-118000260D02*
X81599200Y-84500300D01*
X82599200Y-119000260D02*
G75*
G02*
X81599200Y-118000260I0J1000000D01*
G01*
X81599200Y-134017600D02*
X81600040Y-121038620D01*
X81600041Y-121038620D02*
G75*
G02*
X82595225Y-120000297I994244J43143D01*
G01*
X216831480Y-136500000D02*
X216832180Y-121013220D01*
X216831480Y-45500000D02*
X216832002Y-117955068D01*
X215831480Y-119999476D02*
G75*
G02*
X216832180Y-121013220I0J-1000784D01*
G01*
X216830461Y-117955136D02*
G75*
G02*
X215831480Y-119000260I-998981J-45124D01*
G01*
X109999080Y-119500260D02*
G75*
G03*
X109499080Y-119000260I-500000J0D01*
G01*
X109499080Y-120000260D02*
G75*
G03*
X109999080Y-119500260I0J500000D01*
G01*
X128999080Y-119500260D02*
G75*
G03*
X128499080Y-119000260I-500000J0D01*
G01*
X150499080Y-119000260D02*
G75*
G03*
X149999080Y-119500260I0J-500000D01*
G01*
X166499080Y-120000260D02*
G75*
G03*
X166999080Y-119500260I0J500000D01*
G01*
X166999080Y-119500260D02*
G75*
G03*
X166499080Y-119000260I-500000J0D01*
G01*
X169499080Y-119000260D02*
G75*
G03*
X168999080Y-119500260I0J-500000D01*
G01*
X187999080Y-119500260D02*
G75*
G03*
X188499080Y-120000260I500000J0D01*
G01*
X90999080Y-119500260D02*
G75*
G03*
X90499080Y-119000260I-500000J0D01*
G01*
X112499080Y-119000260D02*
G75*
G03*
X111999080Y-119500260I0J-500000D01*
G01*
X131499080Y-119000260D02*
G75*
G03*
X130999080Y-119500260I0J-500000D01*
G01*
X188499080Y-119000260D02*
G75*
G03*
X187999080Y-119500260I0J-500000D01*
G01*
X111999080Y-119500260D02*
G75*
G03*
X112499080Y-120000260I500000J0D01*
G01*
X149999080Y-119500260D02*
G75*
G03*
X150499080Y-120000260I500000J0D01*
G01*
X92999080Y-119500260D02*
G75*
G03*
X93499080Y-120000260I500000J0D01*
G01*
X128499080Y-120000260D02*
G75*
G03*
X128999080Y-119500260I0J500000D01*
G01*
X147999080Y-119500260D02*
G75*
G03*
X147499080Y-119000260I-500000J0D01*
G01*
X93499080Y-119000260D02*
G75*
G03*
X92999080Y-119500260I0J-500000D01*
G01*
X90499080Y-120000260D02*
G75*
G03*
X90999080Y-119500260I0J500000D01*
G01*
X168999080Y-119500260D02*
G75*
G03*
X169499080Y-120000260I500000J0D01*
G01*
X185499080Y-120000260D02*
G75*
G03*
X185999080Y-119500260I0J500000D01*
G01*
X130999080Y-119500260D02*
G75*
G03*
X131499080Y-120000260I500000J0D01*
G01*
X147499080Y-120000260D02*
G75*
G03*
X147999080Y-119500260I0J500000D01*
G01*
X185999080Y-119500260D02*
G75*
G03*
X185499080Y-119000260I-500000J0D01*
G01*
X150499080Y-119000260D02*
X166499080Y-119000260D01*
X93499080Y-119000260D02*
X109499080Y-119000260D01*
X112499080Y-119000260D02*
X128499080Y-119000260D01*
X131499080Y-119000260D02*
X147499080Y-119000260D01*
X147499080Y-120000260D02*
X131499080Y-120000260D01*
X128499080Y-120000260D02*
X112499080Y-120000260D01*
X185499080Y-120000260D02*
X169499080Y-120000260D01*
X93499080Y-120000260D02*
X109499080Y-120000260D01*
X169499080Y-119000260D02*
X185499080Y-119000260D01*
X215831480Y-120000260D02*
X207499080Y-120000260D01*
X166499080Y-120000260D02*
X150499080Y-120000260D01*
X204499080Y-120000260D02*
G75*
G03*
X204999080Y-119500260I0J500000D01*
G01*
X207499080Y-119000260D02*
X215831480Y-119000260D01*
X204999080Y-119500260D02*
G75*
G03*
X204499080Y-119000260I-500000J0D01*
G01*
X90499080Y-120000260D02*
X82599200Y-120000260D01*
X82599200Y-119000260D02*
X90499080Y-119000260D01*
X207499080Y-119000260D02*
G75*
G03*
X206999080Y-119500260I0J-500000D01*
G01*
X206999080Y-119500260D02*
G75*
G03*
X207499080Y-120000260I500000J0D01*
G01*
X204499080Y-120000260D02*
X188499080Y-120000260D01*
X188499080Y-119000260D02*
X204499080Y-119000260D01*
X215331480Y-44000000D02*
G75*
G02*
X216831480Y-45500000I0J-1500000D01*
G01*
X216831480Y-136500000D02*
G75*
G02*
X215331480Y-138000000I-1500000J0D01*
G01*
X180500000Y-44000000D02*
X215331480Y-44000000D01*
X81599200Y-55836400D02*
X81599200Y-78505900D01*
X81599200Y-55836400D02*
X81599170Y-45472325D01*
X81599200Y-134017600D02*
X81599200Y-136506800D01*
X180500000Y-138000000D02*
X215331480Y-138000000D01*
X179500000Y-135000000D02*
X179500000Y-137000000D01*
X175500000Y-137000000D02*
X175500000Y-135000000D01*
X123500000Y-138000000D02*
X174500000Y-138000000D01*
X117500000Y-138000000D02*
X83099200Y-138006800D01*
X122500000Y-135000000D02*
X122500000Y-137000000D01*
X118500000Y-135000000D02*
X118500000Y-137000000D01*
X84599200Y-83500300D02*
X82599200Y-83500300D01*
X82599200Y-79505900D02*
X84599200Y-79505900D01*
X179500000Y-137000000D02*
G75*
G03*
X180500000Y-138000000I1000000J0D01*
G01*
X174500000Y-138000000D02*
G75*
G03*
X175500000Y-137000000I0J1000000D01*
G01*
X122500000Y-137000000D02*
G75*
G03*
X123500000Y-138000000I1000000J0D01*
G01*
X117500000Y-138000000D02*
G75*
G03*
X118500000Y-137000000I0J1000000D01*
G01*
X82599200Y-83500300D02*
G75*
G03*
X81599200Y-84500300I0J-1000000D01*
G01*
X81599200Y-78505900D02*
G75*
G03*
X82599200Y-79505900I1000000J0D01*
G01*
X179500000Y-45000000D02*
X179500000Y-47000000D01*
X180500000Y-44000000D02*
G75*
G03*
X179500000Y-45000000I0J-1000000D01*
G01*
X175500000Y-45000000D02*
X175500000Y-47000000D01*
X175500000Y-45000000D02*
G75*
G03*
X174500000Y-44000000I-1000000J0D01*
G01*
X123500000Y-44000000D02*
X174500000Y-44000000D01*
X122500000Y-47000000D02*
X122500000Y-45000000D01*
X123500000Y-44000000D02*
G75*
G03*
X122500000Y-45000000I0J-1000000D01*
G01*
X117500000Y-44000000D02*
X83021600Y-44000000D01*
X118500000Y-45000000D02*
X118500000Y-47000000D01*
X118500000Y-45000000D02*
G75*
G03*
X117500000Y-44000000I-1000000J0D01*
G01*
X175500000Y-135000000D02*
X179500000Y-135000000D01*
X118500000Y-135000000D02*
X122500000Y-135000000D01*
X175500000Y-47000000D02*
X179500000Y-47000000D01*
X118500000Y-47000000D02*
X122500000Y-47000000D01*
X84599200Y-79505900D02*
X84599200Y-83500300D01*
X204250000Y-126250000D02*
X204250000Y-121750000D01*
X207750000Y-126250000D02*
X204250000Y-126250000D01*
X207750000Y-121750000D02*
X207750000Y-126250000D01*
X204250000Y-121750000D02*
X207750000Y-121750000D01*
X185250000Y-126250000D02*
X185250000Y-121750000D01*
X188750000Y-126250000D02*
X185250000Y-126250000D01*
X188750000Y-121750000D02*
X188750000Y-126250000D01*
X185250000Y-121750000D02*
X188750000Y-121750000D01*
X166250000Y-126250000D02*
X166250000Y-121750000D01*
X169750000Y-126250000D02*
X166250000Y-126250000D01*
X169750000Y-121750000D02*
X169750000Y-126250000D01*
X166250000Y-121750000D02*
X169750000Y-121750000D01*
X147250000Y-126250000D02*
X147250000Y-121750000D01*
X150750000Y-126250000D02*
X147250000Y-126250000D01*
X150750000Y-121750000D02*
X150750000Y-126250000D01*
X147250000Y-121750000D02*
X150750000Y-121750000D01*
X128250000Y-126250000D02*
X128250000Y-121750000D01*
X131750000Y-126250000D02*
X128250000Y-126250000D01*
X131750000Y-121750000D02*
X131750000Y-126250000D01*
X128250000Y-121750000D02*
X131750000Y-121750000D01*
X109250000Y-126250000D02*
X109250000Y-121750000D01*
X112750000Y-126250000D02*
X109250000Y-126250000D01*
X112750000Y-121750000D02*
X112750000Y-126250000D01*
X109250000Y-121750000D02*
X112750000Y-121750000D01*
X90250000Y-126250000D02*
X90250000Y-121750000D01*
X93750000Y-126250000D02*
X90250000Y-126250000D01*
X93750000Y-121750000D02*
X93750000Y-126250000D01*
X90250000Y-121750000D02*
X93750000Y-121750000D01*
X90250000Y-107250000D02*
X90250000Y-102750000D01*
X93750000Y-107250000D02*
X90250000Y-107250000D01*
X93750000Y-102750000D02*
X93750000Y-107250000D01*
X90250000Y-102750000D02*
X93750000Y-102750000D01*
X109250000Y-107250000D02*
X109250000Y-102750000D01*
X112750000Y-107250000D02*
X109250000Y-107250000D01*
X112750000Y-102750000D02*
X112750000Y-107250000D01*
X109250000Y-102750000D02*
X112750000Y-102750000D01*
X128250000Y-107250000D02*
X128250000Y-102750000D01*
X131750000Y-107250000D02*
X128250000Y-107250000D01*
X131750000Y-102750000D02*
X131750000Y-107250000D01*
X128250000Y-102750000D02*
X131750000Y-102750000D01*
X147250000Y-107250000D02*
X147250000Y-102750000D01*
X150750000Y-107250000D02*
X147250000Y-107250000D01*
X150750000Y-102750000D02*
X150750000Y-107250000D01*
X147250000Y-102750000D02*
X150750000Y-102750000D01*
X166250000Y-107250000D02*
X166250000Y-102750000D01*
X169750000Y-107250000D02*
X166250000Y-107250000D01*
X169750000Y-102750000D02*
X169750000Y-107250000D01*
X166250000Y-102750000D02*
X169750000Y-102750000D01*
X185250000Y-107250000D02*
X185250000Y-102750000D01*
X188750000Y-107250000D02*
X185250000Y-107250000D01*
X188750000Y-102750000D02*
X188750000Y-107250000D01*
X185250000Y-102750000D02*
X188750000Y-102750000D01*
X204250000Y-107250000D02*
X204250000Y-102750000D01*
X207750000Y-107250000D02*
X204250000Y-107250000D01*
X207750000Y-102750000D02*
X207750000Y-107250000D01*
X204250000Y-102750000D02*
X207750000Y-102750000D01*
X185250000Y-88250000D02*
X185250000Y-83750000D01*
X188750000Y-88250000D02*
X185250000Y-88250000D01*
X188750000Y-83750000D02*
X188750000Y-88250000D01*
X185250000Y-83750000D02*
X188750000Y-83750000D01*
X166250000Y-88250000D02*
X166250000Y-83750000D01*
X169750000Y-88250000D02*
X166250000Y-88250000D01*
X169750000Y-83750000D02*
X169750000Y-88250000D01*
X166250000Y-83750000D02*
X169750000Y-83750000D01*
X147250000Y-88250000D02*
X147250000Y-83750000D01*
X150750000Y-88250000D02*
X147250000Y-88250000D01*
X150750000Y-83750000D02*
X150750000Y-88250000D01*
X147250000Y-83750000D02*
X150750000Y-83750000D01*
X128250000Y-88250000D02*
X128250000Y-83750000D01*
X131750000Y-88250000D02*
X128250000Y-88250000D01*
X131750000Y-83750000D02*
X131750000Y-88250000D01*
X128250000Y-83750000D02*
X131750000Y-83750000D01*
X109250000Y-88250000D02*
X109250000Y-83750000D01*
X112750000Y-88250000D02*
X109250000Y-88250000D01*
X112750000Y-83750000D02*
X112750000Y-88250000D01*
X109250000Y-83750000D02*
X112750000Y-83750000D01*
X90250000Y-88250000D02*
X90250000Y-83750000D01*
X93750000Y-88250000D02*
X90250000Y-88250000D01*
X93750000Y-83750000D02*
X93750000Y-88250000D01*
X90250000Y-83750000D02*
X93750000Y-83750000D01*
X90250000Y-69250000D02*
X90250000Y-64750000D01*
X93750000Y-69250000D02*
X90250000Y-69250000D01*
X93750000Y-64750000D02*
X93750000Y-69250000D01*
X90250000Y-64750000D02*
X93750000Y-64750000D01*
X109250000Y-69250000D02*
X109250000Y-64750000D01*
X112750000Y-69250000D02*
X109250000Y-69250000D01*
X112750000Y-64750000D02*
X112750000Y-69250000D01*
X109250000Y-64750000D02*
X112750000Y-64750000D01*
X128250000Y-69250000D02*
X128250000Y-64750000D01*
X131750000Y-69250000D02*
X128250000Y-69250000D01*
X131750000Y-64750000D02*
X131750000Y-69250000D01*
X128250000Y-64750000D02*
X131750000Y-64750000D01*
X147250000Y-69250000D02*
X147250000Y-64750000D01*
X150750000Y-69250000D02*
X147250000Y-69250000D01*
X150750000Y-64750000D02*
X150750000Y-69250000D01*
X147250000Y-64750000D02*
X150750000Y-64750000D01*
X166250000Y-69250000D02*
X166250000Y-64750000D01*
X169750000Y-69250000D02*
X166250000Y-69250000D01*
X169750000Y-64750000D02*
X169750000Y-69250000D01*
X166250000Y-64750000D02*
X169750000Y-64750000D01*
X185250000Y-69250000D02*
X185250000Y-64750000D01*
X188750000Y-69250000D02*
X185250000Y-69250000D01*
X188750000Y-64750000D02*
X188750000Y-69250000D01*
X185250000Y-64750000D02*
X188750000Y-64750000D01*
X185250000Y-50250000D02*
X185250000Y-45750000D01*
X188750000Y-50250000D02*
X185250000Y-50250000D01*
X188750000Y-45750000D02*
X188750000Y-50250000D01*
X185250000Y-45750000D02*
X188750000Y-45750000D01*
X166250000Y-50250000D02*
X166250000Y-45750000D01*
X169750000Y-50250000D02*
X166250000Y-50250000D01*
X169750000Y-45750000D02*
X169750000Y-50250000D01*
X166250000Y-45750000D02*
X169750000Y-45750000D01*
X147250000Y-50250000D02*
X147250000Y-45750000D01*
X150750000Y-50250000D02*
X147250000Y-50250000D01*
X150750000Y-45750000D02*
X150750000Y-50250000D01*
X147250000Y-45750000D02*
X150750000Y-45750000D01*
X128250000Y-50250000D02*
X128250000Y-45750000D01*
X131750000Y-50250000D02*
X128250000Y-50250000D01*
X131750000Y-45750000D02*
X131750000Y-50250000D01*
X128250000Y-45750000D02*
X131750000Y-45750000D01*
X109250000Y-50250000D02*
X109250000Y-45750000D01*
X112750000Y-50250000D02*
X109250000Y-50250000D01*
X112750000Y-45750000D02*
X112750000Y-50250000D01*
X109250000Y-45750000D02*
X112750000Y-45750000D01*
X90250000Y-50250000D02*
X90250000Y-45750000D01*
X93750000Y-50250000D02*
X90250000Y-50250000D01*
X93750000Y-45750000D02*
X93750000Y-50250000D01*
X90250000Y-45750000D02*
X93750000Y-45750000D01*
X83021600Y-44000000D02*
G75*
G03*
X81599170Y-45472325I50770J-1472325D01*
G01*
X81599200Y-136506800D02*
G75*
G03*
X83099200Y-138006800I1500000J0D01*
G01*
M02*
