M48
; DRILL file {KiCad (5.1.10)-1} date 12/22/21 00:26:27
; FORMAT={-:-/ absolute / inch / decimal}
; #@! TF.CreationDate,2021-12-22T00:26:27+01:00
; #@! TF.GenerationSoftware,Kicad,Pcbnew,(5.1.10)-1
; #@! TF.FileFunction,Plated,1,2,PTH
FMAT,2
INCH
T1C0.0157
T2C0.0320
T3C0.0394
T4C0.0512
%
G90
G05
T1
X3.2963Y-4.3881
X3.2963Y-5.1373
X3.2966Y-1.9663
X3.2966Y-2.0392
X3.2966Y-2.4902
X3.2966Y-2.6033
X3.2966Y-3.4593
X3.2966Y-3.5292
X3.2966Y-3.9842
X3.2966Y-4.0994
X3.3674Y-4.6478
X3.3676Y-4.9911
X3.3676Y-4.7728
X3.4064Y-4.2417
X3.4165Y-1.7805
X3.4165Y-2.5285
X3.4165Y-3.2766
X3.4165Y-4.0246
X3.4165Y-4.842
X3.4646Y-1.8553
X3.4651Y-2.6033
X3.4657Y-3.3514
X3.4657Y-4.8474
X3.4687Y-4.0994
X3.5036Y-2.4606
X3.5036Y-3.2087
X3.5036Y-3.9567
X3.622Y-2.1929
X3.622Y-2.2323
X3.622Y-2.9409
X3.622Y-2.9803
X3.622Y-3.6889
X3.622Y-3.7283
X3.622Y-4.4379
X3.622Y-4.4773
X3.622Y-5.1849
X3.622Y-5.2243
X3.7461Y-2.4606
X3.7461Y-3.2087
X3.7461Y-3.9567
X3.7775Y-4.9163
X3.7786Y-3.4203
X3.779Y-2.6722
X3.7791Y-1.9242
X3.7805Y-4.1683
X3.8767Y-1.999
X3.8767Y-2.747
X3.8767Y-3.4951
X3.8767Y-4.2431
X3.8767Y-4.9911
X3.9082Y-5.0287
X3.9152Y-4.2816
X3.9836Y-4.9533
X3.9915Y-4.2053
X4.0443Y-4.388
X4.0443Y-5.1373
X4.1646Y-1.7805
X4.1646Y-2.5285
X4.1646Y-3.2766
X4.1646Y-4.0235
X4.1646Y-4.7726
X4.2136Y-2.6033
X4.2137Y-3.3514
X4.2137Y-4.0994
X4.2146Y-1.8553
X4.2157Y-4.8474
X4.2461Y-2.4606
X4.2461Y-3.2087
X4.2461Y-3.9567
X4.3701Y-2.1929
X4.3701Y-2.2323
X4.3701Y-2.9409
X4.3701Y-2.9803
X4.3701Y-3.6889
X4.3701Y-3.7283
X4.3701Y-4.4379
X4.3701Y-4.4773
X4.3701Y-5.1849
X4.3701Y-5.2243
X4.4941Y-2.4606
X4.4941Y-3.2087
X4.4941Y-3.9567
X4.5255Y-4.9163
X4.5266Y-3.4203
X4.527Y-4.1683
X4.528Y-1.9242
X4.528Y-2.6722
X4.6277Y-1.999
X4.6277Y-2.747
X4.6277Y-3.4951
X4.6277Y-4.2431
X4.6277Y-4.9911
X4.6613Y-4.2831
X4.662Y-5.0285
X4.7372Y-4.9533
X4.7391Y-4.2053
X4.7923Y-4.3882
X4.7923Y-5.1373
X4.8915Y-1.8305
X4.9126Y-2.5285
X4.9126Y-3.2766
X4.9126Y-4.0235
X4.9126Y-4.7726
X4.9591Y-2.6033
X4.9597Y-3.3514
X4.9627Y-4.0994
X4.9637Y-4.8474
X4.9646Y-1.8553
X4.9941Y-2.4606
X4.9941Y-3.2087
X4.9941Y-3.9567
X5.1181Y-2.1929
X5.1181Y-2.2323
X5.1181Y-2.9409
X5.1181Y-2.9803
X5.1181Y-3.6889
X5.1181Y-3.7283
X5.1181Y-4.4379
X5.1181Y-4.4773
X5.1181Y-5.1849
X5.1181Y-5.2243
X5.2421Y-2.4606
X5.2421Y-3.2087
X5.2421Y-3.9567
X5.274Y-1.9242
X5.2745Y-4.9163
X5.275Y-4.1683
X5.2756Y-3.4203
X5.276Y-2.6722
X5.3762Y-1.999
X5.3762Y-2.747
X5.3762Y-3.4951
X5.3762Y-4.2431
X5.3762Y-4.9911
X5.4109Y-4.2845
X5.4109Y-5.0286
X5.4862Y-4.9533
X5.4901Y-4.2053
X5.5404Y-4.389
X5.5404Y-5.1383
X5.6606Y-1.7805
X5.6606Y-2.5285
X5.6606Y-3.2766
X5.6606Y-4.0233
X5.6606Y-4.7726
X5.7061Y-2.6033
X5.7089Y-4.0994
X5.7107Y-3.3514
X5.7117Y-4.8474
X5.7146Y-1.8553
X5.7421Y-2.4606
X5.7421Y-3.2087
X5.7421Y-3.9567
X5.8661Y-2.1929
X5.8661Y-2.2323
X5.8661Y-2.9409
X5.8661Y-2.9803
X5.8661Y-3.6889
X5.8661Y-3.7283
X5.8661Y-4.4379
X5.8661Y-4.4773
X5.8661Y-5.1849
X5.8661Y-5.2243
X5.9902Y-2.4606
X5.9902Y-3.2087
X5.9902Y-3.9567
X6.0215Y-4.9163
X6.0231Y-4.1683
X6.024Y-1.9242
X6.0245Y-2.6722
X6.0246Y-3.4203
X6.1262Y-1.999
X6.1262Y-2.747
X6.1262Y-3.4951
X6.1262Y-4.2431
X6.1262Y-4.9911
X6.1358Y-2.4938
X6.1547Y-5.0289
X6.157Y-4.2796
X6.2303Y-4.9533
X6.2313Y-4.2053
X6.2884Y-4.3883
X6.2884Y-5.1373
X6.4087Y-1.7805
X6.4087Y-2.5285
X6.4087Y-3.2766
X6.4087Y-4.0235
X6.4087Y-4.7726
X6.4529Y-4.0994
X6.4531Y-2.6033
X6.4567Y-3.3514
X6.4577Y-4.8474
X6.4626Y-1.8553
X6.4796Y-3.2087
X6.4902Y-2.4606
X6.4902Y-3.9567
X6.6142Y-2.1929
X6.6142Y-2.2323
X6.6142Y-2.9409
X6.6142Y-2.9803
X6.6142Y-3.6889
X6.6142Y-3.7283
X6.6142Y-4.4379
X6.6142Y-4.4773
X6.6142Y-5.1849
X6.6142Y-5.2243
X6.7382Y-2.4606
X6.7382Y-3.2087
X6.7382Y-3.9567
X6.7695Y-1.9242
X6.771Y-4.1683
X6.7715Y-4.9163
X6.7716Y-3.4203
X6.7718Y-2.5282
X6.773Y-2.6722
X6.8244Y-2.5282
X6.8757Y-1.999
X6.8757Y-2.747
X6.8757Y-3.4951
X6.8757Y-4.2431
X6.8757Y-4.9911
X6.9034Y-4.2818
X6.9049Y-5.0291
X6.9799Y-4.2053
X6.9807Y-4.9533
X7.0364Y-4.3879
X7.0364Y-5.1383
X7.1264Y-1.8201
X7.1567Y-3.2766
X7.1567Y-4.0235
X7.1567Y-4.7726
X7.1678Y-2.557
X7.2016Y-2.6033
X7.2037Y-3.3514
X7.2046Y-1.8553
X7.2047Y-4.8474
X7.2064Y-4.0994
X7.2382Y-2.4606
X7.2382Y-3.2087
X7.2382Y-3.9567
X7.3622Y-2.1929
X7.3622Y-2.2323
X7.3622Y-2.9803
X7.3622Y-3.6889
X7.3622Y-3.7283
X7.3622Y-4.4379
X7.3622Y-4.4773
X7.3622Y-5.1849
X7.3622Y-5.2243
X7.4291Y-2.9409
X7.4606Y-2.9608
X7.4836Y-2.747
X7.4866Y-2.4606
X7.4866Y-3.2087
X7.4866Y-3.9567
X7.495Y-3.3055
X7.5113Y-3.4203
X7.5175Y-4.9163
X7.518Y-4.1683
X7.5195Y-2.6722
X7.5195Y-2.7822
X7.5216Y-3.1576
X7.524Y-1.8553
X7.5404Y-3.3523
X7.5424Y-2.4929
X7.5677Y-2.7164
X7.5716Y-3.3215
X7.573Y-2.5277
X7.596Y-2.41
X7.5974Y-3.2081
X7.6125Y-2.4822
X7.6267Y-4.2431
X7.6267Y-4.9911
X7.6456Y-2.7822
X7.6555Y-4.2814
X7.6557Y-5.0285
X7.6582Y-3.4951
X7.6782Y-3.0828
X7.7116Y-3.0828
X7.7116Y-3.1296
X7.7116Y-3.3077
X7.7309Y-4.9533
X7.7316Y-4.2053
X7.7632Y-3.9567
X7.7633Y-3.4628
X7.7844Y-4.3886
X7.7844Y-5.1383
X7.7999Y-3.4637
X7.8343Y-3.4632
X7.9047Y-4.0235
X7.9047Y-4.7726
X7.9169Y-2.9372
X7.9282Y-1.8283
X7.9537Y-4.0994
X7.9557Y-4.8474
X7.9592Y-2.0322
X7.9816Y-4.3087
X7.9946Y-1.8822
X7.9946Y-2.1822
X7.9946Y-2.2322
X8.0064Y-4.4368
X8.0157Y-4.0235
X8.0157Y-4.7726
X8.0248Y-2.2821
X8.0546Y-2.0803
X8.094Y-1.779
X8.0941Y-3.0023
X8.1052Y-2.1822
X8.1068Y-1.9307
X8.1102Y-4.4379
X8.1102Y-4.4773
X8.1102Y-5.1849
X8.1102Y-5.2243
X8.1457Y-3.0364
X8.1946Y-2.4322
X8.1946Y-3.2533
X8.2047Y-4.4543
X8.2262Y-2.1322
X8.2266Y-2.0806
X8.2537Y-2.3322
X8.2645Y-4.9163
X8.2685Y-4.1683
X8.2728Y-1.9308
X8.2915Y-1.9821
X8.2946Y-2.9777
X8.3157Y-4.2431
X8.3157Y-4.9911
X8.318Y-2.229
X8.3372Y-2.0322
X8.3387Y-2.2822
X8.3436Y-2.9088
X8.3454Y-3.0364
X8.3457Y-2.7322
X8.3459Y-2.8322
X8.3462Y-2.6322
X8.3464Y-2.4322
X8.3464Y-2.5322
T2
X7.8206Y-1.9322
X7.8206Y-2.0322
X7.8206Y-2.1322
X7.8206Y-2.2322
X7.8206Y-2.3322
X7.8206Y-2.4322
X7.8206Y-2.5322
X7.8206Y-2.6322
X7.8206Y-2.7322
X7.8206Y-2.8322
X7.8206Y-2.9322
X7.8206Y-3.0322
X7.8706Y-1.8822
X7.8706Y-1.9822
X7.8706Y-2.0822
X7.8706Y-2.1822
X7.8706Y-2.2822
X7.8706Y-2.3822
X7.8706Y-2.4822
X7.8706Y-2.5822
X7.8706Y-2.6822
X7.8706Y-2.7822
X7.8706Y-2.8822
X7.8706Y-2.9822
X7.9396Y-3.2723
X7.9396Y-3.3493
X7.9946Y-3.1807
X8.0946Y-3.1807
X8.1946Y-3.1807
X8.2946Y-3.1807
X8.4206Y-1.9322
X8.4206Y-2.0322
X8.4206Y-2.1322
X8.4206Y-2.2322
X8.4206Y-2.3322
X8.4206Y-2.4322
X8.4206Y-2.5322
X8.4206Y-2.6322
X8.4206Y-2.7322
X8.4206Y-2.8322
X8.4206Y-2.9322
X8.4206Y-3.0322
X8.4706Y-1.8822
X8.4706Y-1.9822
X8.4706Y-2.0822
X8.4706Y-2.1822
X8.4706Y-2.2822
X8.4706Y-2.3822
X8.4706Y-2.4822
X8.4706Y-2.5822
X8.4706Y-2.6822
X8.4706Y-2.7822
X8.4706Y-2.8822
X8.4706Y-2.9822
T4
X8.1555Y-3.6378
X8.4114Y-3.6378
T3
G00X8.0658Y-3.3496
M15
G01X8.0462Y-3.3496
M16
G05
G00X8.0658Y-3.4461
M15
G01X8.0462Y-3.4461
M16
G05
G00X8.1249Y-3.2807
M15
G01X8.1052Y-3.2807
M16
G05
G00X8.1249Y-3.515
M15
G01X8.1052Y-3.515
M16
G05
G00X8.2824Y-3.2807
M15
G01X8.2627Y-3.2807
M16
G05
G00X8.2824Y-3.515
M15
G01X8.2627Y-3.515
M16
G05
G00X8.4005Y-3.2807
M15
G01X8.3808Y-3.2807
M16
G05
G00X8.4005Y-3.515
M15
G01X8.3808Y-3.515
M16
G05
T0
M30
