G04 #@! TF.GenerationSoftware,KiCad,Pcbnew,(5.1.10)-1*
G04 #@! TF.CreationDate,2021-11-02T00:21:08+01:00*
G04 #@! TF.ProjectId,helix,68656c69-782e-46b6-9963-61645f706362,rev?*
G04 #@! TF.SameCoordinates,Original*
G04 #@! TF.FileFunction,Paste,Top*
G04 #@! TF.FilePolarity,Positive*
%FSLAX46Y46*%
G04 Gerber Fmt 4.6, Leading zero omitted, Abs format (unit mm)*
G04 Created by KiCad (PCBNEW (5.1.10)-1) date 2021-11-02 00:21:08*
%MOMM*%
%LPD*%
G01*
G04 APERTURE LIST*
%ADD10R,2.600000X2.600000*%
%ADD11R,0.900000X1.200000*%
%ADD12R,1.600000X1.000000*%
%ADD13R,1.200000X0.900000*%
%ADD14R,1.524000X1.524000*%
%ADD15R,1.143000X0.635000*%
G04 APERTURE END LIST*
D10*
X214275000Y-132750000D03*
X202725000Y-134950000D03*
X195275000Y-132750000D03*
X183725000Y-134950000D03*
X176275000Y-132750000D03*
X164725000Y-134950000D03*
X157275000Y-132750000D03*
X145725000Y-134950000D03*
X138275000Y-132750000D03*
X126725000Y-134950000D03*
X119275000Y-132750000D03*
X107725000Y-134950000D03*
X100275000Y-132750000D03*
X88725000Y-134950000D03*
X214275000Y-113750000D03*
X202725000Y-115950000D03*
X195275000Y-113750000D03*
X183725000Y-115950000D03*
X176275000Y-113750000D03*
X164725000Y-115950000D03*
X157275000Y-113750000D03*
X145725000Y-115950000D03*
X138275000Y-113750000D03*
X126725000Y-115950000D03*
X119275000Y-113750000D03*
X107725000Y-115950000D03*
X100275000Y-113750000D03*
X88725000Y-115950000D03*
X195275000Y-94750000D03*
X183725000Y-96950000D03*
X176275000Y-94750000D03*
X164725000Y-96950000D03*
X157275000Y-94750000D03*
X145725000Y-96950000D03*
X138275000Y-94750000D03*
X126725000Y-96950000D03*
X119275000Y-94750000D03*
X107725000Y-96950000D03*
X100275000Y-94750000D03*
X88725000Y-96950000D03*
X195275000Y-75750000D03*
X183725000Y-77950000D03*
X176275000Y-75750000D03*
X164725000Y-77950000D03*
X157275000Y-75750000D03*
X145725000Y-77950000D03*
X138275000Y-75750000D03*
X126725000Y-77950000D03*
X119275000Y-75750000D03*
X107725000Y-77950000D03*
X100275000Y-75750000D03*
X88725000Y-77950000D03*
X195275000Y-56750000D03*
X183725000Y-58950000D03*
X176275000Y-56750000D03*
X164725000Y-58950000D03*
X157275000Y-56750000D03*
X145725000Y-58950000D03*
X138275000Y-56750000D03*
X126725000Y-58950000D03*
X119275000Y-56750000D03*
X107725000Y-58950000D03*
X100275000Y-56750000D03*
X88725000Y-58950000D03*
D11*
X131650000Y-62500000D03*
X128350000Y-62500000D03*
X207633000Y-119500000D03*
X204333000Y-119500000D03*
D12*
X151400000Y-48875000D03*
X151400000Y-47125000D03*
X146600000Y-48875000D03*
X146600000Y-47125000D03*
D13*
X197725000Y-125814400D03*
X197725000Y-129114400D03*
X178725000Y-125814400D03*
X178725000Y-129114400D03*
X159725000Y-125814400D03*
X159725000Y-129114400D03*
X140725000Y-125814400D03*
X140725000Y-129114400D03*
X121725000Y-125814400D03*
X121725000Y-129114400D03*
X102725000Y-125814400D03*
X102725000Y-129114400D03*
X83725000Y-129114400D03*
X83725000Y-125814400D03*
D11*
X188659200Y-119500000D03*
X185359200Y-119500000D03*
X169650000Y-119500000D03*
X166350000Y-119500000D03*
X150650000Y-119500000D03*
X147350000Y-119500000D03*
X131650000Y-119500000D03*
X128350000Y-119500000D03*
X112650000Y-119500000D03*
X109350000Y-119500000D03*
X93650000Y-119500000D03*
X90350000Y-119500000D03*
X188548400Y-100500000D03*
X185248400Y-100500000D03*
X169650000Y-100500000D03*
X166350000Y-100500000D03*
X150650000Y-100500000D03*
X147350000Y-100500000D03*
X131650000Y-100500000D03*
X128350000Y-100500000D03*
X112650000Y-100500000D03*
X109350000Y-100500000D03*
X93650000Y-100500000D03*
X90350000Y-100500000D03*
X188650000Y-81500000D03*
X185350000Y-81500000D03*
X169380600Y-81500000D03*
X166080600Y-81500000D03*
X150650000Y-81500000D03*
X147350000Y-81500000D03*
X131650000Y-81500000D03*
X128350000Y-81500000D03*
X112650000Y-81500000D03*
X109350000Y-81500000D03*
X93650000Y-81500000D03*
X90350000Y-81500000D03*
X185350000Y-62500000D03*
X188650000Y-62500000D03*
X166350000Y-62500000D03*
X169650000Y-62500000D03*
X147350000Y-62500000D03*
X150650000Y-62500000D03*
X112650000Y-62500000D03*
X109350000Y-62500000D03*
X93650000Y-62500000D03*
X90350000Y-62500000D03*
D14*
X194517440Y-86565320D03*
X194517440Y-84025320D03*
X194517440Y-81485320D03*
D12*
X94400000Y-48875000D03*
X94400000Y-47125000D03*
X89600000Y-48875000D03*
X89600000Y-47125000D03*
X113400000Y-48875000D03*
X113400000Y-47125000D03*
X108600000Y-48875000D03*
X108600000Y-47125000D03*
D15*
X210682000Y-77124620D03*
X210682000Y-78125380D03*
X208142000Y-77124620D03*
X208142000Y-78125380D03*
X205602000Y-77124620D03*
X205602000Y-78125380D03*
X203062000Y-77124620D03*
X203062000Y-78125380D03*
D12*
X132400000Y-48875000D03*
X132400000Y-47125000D03*
X127600000Y-48875000D03*
X127600000Y-47125000D03*
X170400000Y-48875000D03*
X170400000Y-47125000D03*
X165600000Y-48875000D03*
X165600000Y-47125000D03*
X89600000Y-66125000D03*
X89600000Y-67875000D03*
X94400000Y-66125000D03*
X94400000Y-67875000D03*
X108600000Y-66125000D03*
X108600000Y-67875000D03*
X113400000Y-66125000D03*
X113400000Y-67875000D03*
X127600000Y-66125000D03*
X127600000Y-67875000D03*
X132400000Y-66125000D03*
X132400000Y-67875000D03*
X146600000Y-66125000D03*
X146600000Y-67875000D03*
X151400000Y-66125000D03*
X151400000Y-67875000D03*
X165600000Y-66125000D03*
X165600000Y-67875000D03*
X170400000Y-66125000D03*
X170400000Y-67875000D03*
X184600000Y-66125000D03*
X184600000Y-67875000D03*
X189400000Y-66125000D03*
X189400000Y-67875000D03*
X94400000Y-86875000D03*
X94400000Y-85125000D03*
X89600000Y-86875000D03*
X89600000Y-85125000D03*
X113400000Y-86875000D03*
X113400000Y-85125000D03*
X108600000Y-86875000D03*
X108600000Y-85125000D03*
X132400000Y-86875000D03*
X132400000Y-85125000D03*
X127600000Y-86875000D03*
X127600000Y-85125000D03*
X151400000Y-86875000D03*
X151400000Y-85125000D03*
X146600000Y-86875000D03*
X146600000Y-85125000D03*
X170400000Y-86875000D03*
X170400000Y-85125000D03*
X165600000Y-86875000D03*
X165600000Y-85125000D03*
X189400000Y-86875000D03*
X189400000Y-85125000D03*
X184600000Y-86875000D03*
X184600000Y-85125000D03*
X89600000Y-104125000D03*
X89600000Y-105875000D03*
X94400000Y-104125000D03*
X94400000Y-105875000D03*
X108600000Y-104125000D03*
X108600000Y-105875000D03*
X113400000Y-104125000D03*
X113400000Y-105875000D03*
X127600000Y-104125000D03*
X127600000Y-105875000D03*
X132400000Y-104125000D03*
X132400000Y-105875000D03*
X146600000Y-104125000D03*
X146600000Y-105875000D03*
X151400000Y-104125000D03*
X151400000Y-105875000D03*
X165600000Y-104125000D03*
X165600000Y-105875000D03*
X170400000Y-104125000D03*
X170400000Y-105875000D03*
X184600000Y-104125000D03*
X184600000Y-105875000D03*
X189400000Y-104125000D03*
X189400000Y-105875000D03*
X203600000Y-104125000D03*
X203600000Y-105875000D03*
X208400000Y-104125000D03*
X208400000Y-105875000D03*
X94400000Y-124875000D03*
X94400000Y-123125000D03*
X89600000Y-124875000D03*
X89600000Y-123125000D03*
X113400000Y-124875000D03*
X113400000Y-123125000D03*
X108600000Y-124875000D03*
X108600000Y-123125000D03*
X132400000Y-124875000D03*
X132400000Y-123125000D03*
X127600000Y-124875000D03*
X127600000Y-123125000D03*
X151400000Y-124875000D03*
X151400000Y-123125000D03*
X146600000Y-124875000D03*
X146600000Y-123125000D03*
X170400000Y-124875000D03*
X170400000Y-123125000D03*
X165600000Y-124875000D03*
X165600000Y-123125000D03*
X189400000Y-124875000D03*
X189400000Y-123125000D03*
X184600000Y-124875000D03*
X184600000Y-123125000D03*
X208400000Y-124875000D03*
X208400000Y-123125000D03*
X203600000Y-124875000D03*
X203600000Y-123125000D03*
X189400000Y-48875000D03*
X189400000Y-47125000D03*
X184600000Y-48875000D03*
X184600000Y-47125000D03*
M02*
